<?xml version="1.0" encoding="utf-8"?>
<!-- Generator: Adobe Illustrator 25.0.0, SVG Export Plug-In . SVG Version: 6.00 Build 0)  -->
<svg version="1.1" id="Capa_1" xmlns="http://www.w3.org/2000/svg" xmlns:xlink="http://www.w3.org/1999/xlink" x="0px" y="0px"
	 viewBox="0 0 54.5 56" style="enable-background:new 0 0 54.5 56;" xml:space="preserve">
<style type="text/css">
	.st0{opacity:0.1;fill:#008000;enable-background:new    ;}
	.st1{fill:#FFFFFF;}
	.st2{fill:#008000;}
	.st3{fill:#e56d00;}
	.st4{fill:#008000;}
</style>
<path class="st0" d="M54.5,28c0,15-19,27.9-34,27.9S0,43,0,28S16.9,2,32,2S54.5,13,54.5,28z"/>
<g>
	<path class="st1" d="M16.2,8.2h26.2c2.4,0,4.4,2,4.4,4.3v32.8c0,2.4-2,4.3-4.4,4.3H16.2c-2.4,0-4.4-2-4.4-4.3V12.6
		C11.8,10.1,13.7,8.2,16.2,8.2z"/>
	<path class="st2" d="M42.4,50H16.2c-2.6,0-4.8-2.1-4.8-4.7V12.6c0-2.7,2.1-4.8,4.8-4.8h26.2c2.6,0,4.8,2.1,4.8,4.7v32.8
		C47.2,47.9,45,50,42.4,50z M16.2,8.5c-2.3,0-4,1.8-4,4v32.7c0,2.2,1.8,4,4,4h26.2c2.2,0,4-1.8,4-4V12.5c0-2.2-1.8-4-4-4H16.2z"/>
</g>
<g>
	<g>
		<ellipse class="st1" cx="12" cy="10.9" rx="8.8" ry="8.7"/>
		<path class="st3" d="M12,19.7c-5,0-9-4-9-8.8C3,6,7.1,2,12,2s9,4,9,8.8C21.1,15.8,17,19.7,12,19.7z M12,2.4
			c-4.8,0-8.6,3.8-8.6,8.5c0,4.7,3.9,8.5,8.6,8.5s8.6-3.8,8.6-8.5C20.7,6.2,16.8,2.4,12,2.4z"/>
	</g>
	<path class="st4" d="M13.7,12.3h0.7v1.4h-0.7v1.8H12v-1.8H9.1l-0.1-1.1l3-5.6h1.7C13.7,6.9,13.7,12.3,13.7,12.3z M10.7,12.3H12V9.4
		L12,9.5L10.7,12.3z"/>
</g>
<g>
	<path class="st4" d="M28.1,33.4c0,0.4,0.4,0.8,0.8,0.8v-1.5C28.4,32.7,28.1,33,28.1,33.4z"/>
	<path class="st4" d="M17.9,30v9.2h22.7V30H17.9z M23.8,36.9H23v-0.8h0.8V36.9z M23.8,33.1H23v-0.8h0.8V33.1z M19.5,31.5v6.2h4.3
		v0.8H19c-0.2,0-0.4-0.2-0.4-0.4v-6.9c0-0.2,0.2-0.4,0.4-0.4h4.7v0.8L19.5,31.5L19.5,31.5z M21.5,33.1v-0.8h0.8v0.8H21.5z
		 M22.2,36.2v0.8h-0.8v-0.8H22.2z M29.3,38.8c-2.4,0-4.3-1.9-4.3-4.2s1.9-4.2,4.3-4.2s4.3,1.9,4.3,4.2S31.6,38.8,29.3,38.8z
		 M39.9,38.1c0,0.2-0.2,0.4-0.4,0.4h-4.7v-0.8h4.3v-6.1h-4.3v-0.8h4.7c0.2,0,0.4,0.2,0.4,0.4C39.9,31.1,39.9,38.1,39.9,38.1z
		 M35.6,36.2v0.8h-0.8v-0.8H35.6z M34.8,33.1v-0.8h0.8v0.8H34.8z M37.1,36.2v0.8h-0.8v-0.8H37.1z M36.3,33.1v-0.8h0.8v0.8H36.3z"/>
	<path class="st4" d="M29.3,31.2c-1.9,0-3.5,1.5-3.5,3.4s1.6,3.4,3.5,3.4s3.5-1.5,3.5-3.4S31.2,31.2,29.3,31.2z M29.7,34.2
		c0.8,0,1.6,0.7,1.6,1.5c0,0.8-0.7,1.5-1.6,1.5l0,0v0.4h-0.8v-0.4c-0.8,0-1.6-0.7-1.6-1.5h0.8c0,0.4,0.4,0.8,0.8,0.8V35
		c-0.8,0-1.6-0.7-1.6-1.5s0.7-1.5,1.6-1.5v-0.4h0.8v0.4l0,0c0.8,0,1.6,0.7,1.6,1.5h-0.8c0-0.4-0.4-0.8-0.8-0.8l0,0V34.2L29.7,34.2z"
		/>
	<path class="st4" d="M29.7,36.5L29.7,36.5c0.4,0,0.8-0.4,0.8-0.8S30.1,35,29.7,35l0,0V36.5z"/>
	<path class="st4" d="M27.4,29.2h0.9l-0.7-0.7C27.4,28.7,27.3,29,27.4,29.2z"/>
	<path class="st4" d="M26.2,26.6c1.7-1.7,4.4-1.7,6.1,0c0.7,0.7,1.1,1.6,1.3,2.6h3l3.9-3.9l-7-6.8L22.8,29.2H25
		C25.1,28.3,25.5,27.3,26.2,26.6z M31.7,25l-0.5-0.5l0.5-0.5l0.5,0.5L31.7,25z M32.8,23.9l-0.5-0.5l0.5-0.5l0.5,0.5L32.8,23.9z
		 M34,27.2l0.5-0.5l0.5,0.5l-0.5,0.5L34,27.2z M33.4,20.2c0.2-0.2,0.4-0.2,0.5,0l5,4.9c0.1,0.1,0.1,0.2,0.1,0.3s-0.1,0.2-0.1,0.3
		l-3.3,3.3l-0.5-0.6l3-3L33.7,21l-3,3l-0.5-0.5L33.4,20.2z M35.1,26.1l0.5-0.5l0.5,0.5l-0.5,0.5L35.1,26.1z"/>
	<path class="st4" d="M29.3,29.1c0.6-0.6,1.6-0.6,2.2,0c0.1,0.1,0.1,0.1,0.1,0.2h1.1c-0.1-0.8-0.4-1.5-1-2.1c-1.4-1.4-3.6-1.4-5,0
		c-0.5,0.5-0.9,1.3-1,2.1h0.8c-0.1-0.5,0.1-0.9,0.4-1.2l-0.3-0.3l0.5-0.5l0.3,0.3c0.6-0.6,1.6-0.6,2.2,0L29.3,28
		c-0.3-0.3-0.8-0.3-1.1,0L29.3,29.1z"/>
</g>
</svg>
