<svg width="111" height="114" viewBox="0 0 111 114" fill="none" xmlns="http://www.w3.org/2000/svg">
<path opacity="0.1" d="M110.87 56.0562C110.87 87.1823 72.1919 113.988 41.5761 113.988C10.9603 113.988 0 87.1823 0 56.0562C0 24.9302 34.5201 2.00732 65.1359 2.00732C95.7517 2.00732 110.87 24.9302 110.87 56.0562Z" fill="#008000"/>
<rect x="22.0977" y="14.866" width="71.2935" height="86.0761" rx="9" fill="white" stroke="#008000" stroke-width="2"/>
<rect x="29.5654" y="64.8334" width="26.7935" height="4.61957" rx="2.30978" fill="#008000"/>
<rect x="29.5654" y="78.692" width="44.3478" height="4.61957" rx="2.30978" fill="#008000"/>
<rect x="60.0537" y="64.8334" width="26.7935" height="4.61957" rx="2.30978" fill="#008000"/>
<g clip-path="url(#clip0)">
<path d="M44.7913 51.7328L44.7906 51.7354C44.7281 51.9638 44.5781 52.1584 44.3731 52.277C44.1681 52.3956 43.9246 52.4286 43.6954 52.3689L43.8215 51.885L43.6924 52.3681C43.4624 52.3066 43.2662 52.1563 43.147 51.9503C43.0278 51.7442 42.9953 51.4992 43.0567 51.2692L43.0569 51.2687C43.5733 49.3417 44.8659 48.1442 46.256 47.3772C47.6273 46.6206 49.1284 46.2639 50.1333 46.025L50.1493 46.0212L50.1495 46.0212C50.6176 45.91 50.9415 45.8301 51.0812 45.7692L51.0819 45.7689C52.3409 45.2225 53.1023 44.4416 53.4324 43.4564C52.2984 42.3427 51.3578 40.8383 50.7315 39.1549C49.7938 38.091 49.2041 36.8812 49.2041 35.7934C49.2041 35.0746 49.4626 34.4645 49.9726 34.0105C50.3567 29.5273 53.6777 25.964 57.8037 25.942L57.8131 25.942L57.8131 25.9421L57.9316 25.9437L57.9321 25.9437C62.1445 26.0039 65.4588 29.6853 65.7346 34.2673C66.0859 34.6922 66.2567 35.2123 66.2567 35.7926C66.2567 36.7171 65.8296 37.729 65.1248 38.6668C64.4792 40.6289 63.3904 42.405 62.0633 43.6358C62.3963 44.612 63.1559 45.3867 64.4077 45.9305L64.4095 45.9313C64.4638 45.9551 64.5755 45.9898 64.7583 46.0347C64.9304 46.0771 65.1358 46.1217 65.3662 46.1717L65.3772 46.1741L65.3775 46.1742L65.3949 46.1779C66.3919 46.3938 67.8836 46.7167 69.2469 47.4423C70.631 48.1791 71.9181 49.3498 72.4316 51.2666L44.7913 51.7328ZM44.7913 51.7328C45.1546 50.3773 46.0717 49.5097 47.177 48.9126M44.7913 51.7328L47.177 48.9126M51.7967 47.415L51.7957 47.4154C51.4975 47.5441 51.0664 47.6466 50.6023 47.7568L50.5646 47.7658L51.7967 47.415ZM51.7967 47.415C54.238 46.3554 55.069 44.6199 55.3164 43.3278L55.3164 43.3277M51.7967 47.415L55.3164 43.3277M55.3164 43.3277C55.3461 43.1726 55.3343 43.0124 55.2823 42.8633C55.2304 42.7145 55.1402 42.5819 55.0207 42.479C53.9175 41.5266 52.9651 40.0754 52.3599 38.3811C52.3195 38.2668 52.2562 38.162 52.1739 38.073L51.8068 38.4125L52.1748 38.074C51.3789 37.2088 50.9981 36.3702 50.9981 35.7918C50.9981 35.6333 51.0275 35.537 51.0649 35.4708C51.1019 35.405 51.1676 35.3319 51.2998 35.2531L51.3004 35.2527M55.3164 43.3277L51.3004 35.2527M51.3004 35.2527C51.4282 35.1764 51.5349 35.0694 51.6111 34.9415C51.6872 34.8138 51.7303 34.6692 51.7367 34.5206C51.9034 30.6773 54.6186 27.7645 57.8253 27.7353L57.8923 27.7397L57.9051 27.7406M51.3004 35.2527L57.9051 27.7406M57.9051 27.7406L57.918 27.7407M57.9051 27.7406L57.918 27.7407M57.918 27.7407C61.1456 27.7855 63.8561 30.7636 63.9537 34.6714L63.9537 34.6717M57.918 27.7407L63.9537 34.6717M63.9537 34.6717C63.957 34.7987 63.9872 34.9237 64.0424 35.0382C64.0977 35.1526 64.1766 35.2541 64.274 35.3357L64.5952 34.9525L64.2721 35.3341C64.3956 35.4386 64.4603 35.5592 64.4603 35.7934C64.4603 36.271 64.195 36.9468 63.6115 37.69L63.6101 37.6919M63.9537 34.6717L63.6101 37.6919M63.6101 37.6919C63.5454 37.7751 63.4956 37.8688 63.4628 37.9689L63.4628 37.9689M63.6101 37.6919L63.4628 37.9689M63.4628 37.9689L63.4612 37.9741M63.4628 37.9689L63.4612 37.9741M63.4612 37.9741C62.8479 39.918 61.7536 41.608 60.4914 42.6239L60.4908 42.6244M63.4612 37.9741L60.4908 42.6244M60.4908 42.6244C60.3645 42.7264 60.2681 42.8607 60.212 43.0131C60.1558 43.1655 60.142 43.3302 60.1719 43.4898L60.1723 43.4918M60.4908 42.6244L60.1723 43.4918M60.1723 43.4918C60.4197 44.7832 61.2508 46.5176 63.6917 47.5788L63.6923 47.579M60.1723 43.4918L63.6923 47.579M63.6923 47.579C64.0103 47.7168 64.4732 47.8166 64.9667 47.923L64.997 47.9296C65.9903 48.1445 67.2428 48.4186 68.3463 48.9928C69.4367 49.5601 70.3399 50.3983 70.6973 51.7328L70.6975 51.7334M63.6923 47.579L70.6975 51.7334M70.6975 51.7334C70.7281 51.8472 70.7809 51.9539 70.8528 52.0474M70.6975 51.7334L70.8528 52.0474M47.177 48.9126C48.2943 48.309 49.5613 48.0047 50.5643 47.7658L47.177 48.9126ZM70.8528 52.0474C70.9247 52.1409 71.0143 52.2193 71.1164 52.2781M70.8528 52.0474L71.1164 52.2781M71.1164 52.2781C71.2186 52.337 71.3314 52.3751 71.4483 52.3904M71.1164 52.2781L71.4483 52.3904M71.4483 52.3904C71.5653 52.4056 71.684 52.3977 71.7979 52.3671M71.4483 52.3904L71.7979 52.3671M71.7979 52.3671C71.9118 52.3364 72.0185 52.2836 72.112 52.2118M71.7979 52.3671L72.112 52.2118M72.112 52.2118C72.2055 52.1399 72.2838 52.0503 72.3427 51.9481M72.112 52.2118L72.3427 51.9481M72.3427 51.9481C72.4015 51.8459 72.4397 51.7331 72.4549 51.6162M72.3427 51.9481L72.4549 51.6162M72.4549 51.6162C72.4702 51.4995 72.4623 51.3809 72.4318 51.2672L72.4549 51.6162Z" fill="#E56D00" stroke="#E56D00"/>
</g>
<g filter="url(#filter0_d)">
<circle cx="22.5" cy="20.5" r="18" fill="white" stroke="#E56D00"/>
<path d="M27.3101 30H16.8364V27.5586L21.646 21.4429C22.2563 20.5965 22.7039 19.856 22.9888 19.2212C23.2817 18.5783 23.4282 17.9639 23.4282 17.3779C23.4282 16.5885 23.2899 15.9701 23.0132 15.5225C22.7446 15.0749 22.354 14.8511 21.8413 14.8511C21.2798 14.8511 20.8322 15.1115 20.4985 15.6323C20.173 16.1532 20.0103 16.8856 20.0103 17.8296H16.5435C16.5435 16.7391 16.7673 15.7422 17.2148 14.8389C17.6706 13.9355 18.3053 13.2357 19.1191 12.7393C19.9411 12.2347 20.8688 11.9824 21.9023 11.9824C23.4893 11.9824 24.7181 12.4219 25.5889 13.3008C26.4678 14.1715 26.9072 15.4126 26.9072 17.0239C26.9072 18.0249 26.6631 19.0422 26.1748 20.0757C25.6947 21.1011 24.8198 22.3665 23.5503 23.8721L21.2676 27.1313H27.3101V30Z" fill="#008000"/>
</g>
<defs>
<filter id="filter0_d" x="1" y="0" width="45" height="45" filterUnits="userSpaceOnUse" color-interpolation-filters="sRGB">
<feFlood flood-opacity="0" result="BackgroundImageFix"/>
<feColorMatrix in="SourceAlpha" type="matrix" values="0 0 0 0 0 0 0 0 0 0 0 0 0 0 0 0 0 0 127 0"/>
<feOffset dx="1" dy="2"/>
<feGaussianBlur stdDeviation="2"/>
<feColorMatrix type="matrix" values="0 0 0 0 0 0 0 0 0 0 0 0 0 0 0 0 0 0 0.25 0"/>
<feBlend mode="normal" in2="BackgroundImageFix" result="effect1_dropShadow"/>
<feBlend mode="normal" in="SourceGraphic" in2="effect1_dropShadow" result="shape"/>
</filter>
<clipPath id="clip0">
<rect width="30.4891" height="27.7174" fill="white" transform="translate(42.5 25.1051)"/>
</clipPath>
</defs>
</svg>
