<svg width="112" height="114" viewBox="0 0 112 114" fill="none" xmlns="http://www.w3.org/2000/svg">
<path opacity="0.1" d="M111.87 56.0562C111.87 87.1823 73.1919 113.988 42.5761 113.988C11.9603 113.988 1 87.1823 1 56.0562C1 24.9302 35.5201 2.00732 66.1359 2.00732C96.7517 2.00732 111.87 24.9302 111.87 56.0562Z" fill="#008000"/>
<rect x="21.25" y="14.866" width="71.2935" height="86.0761" rx="9" fill="white" stroke="#008000" stroke-width="2"/>
<rect x="30.5654" y="79.616" width="51.7391" height="4.61957" rx="2.30978" fill="#FF0000"/>
<rect x="58.2832" y="77.7682" width="17.5543" height="8.31522" rx="4.15761" fill="#008000"/>
<rect x="30.5654" y="63.9095" width="51.7391" height="4.61957" rx="2.30978" fill="#FF0000"/>
<rect x="37.0332" y="62.0616" width="17.5543" height="8.31522" rx="4.15761" fill="#008000"/>
<path d="M59.3856 42.4982C59.3856 41.8078 59.199 41.2605 58.8258 40.8564C58.4608 40.4438 57.8361 40.0649 56.9518 39.7197C56.0675 39.3745 55.3049 39.0335 54.664 38.6967C54.0231 38.3515 53.4714 37.9599 53.009 37.5221C52.5547 37.0759 52.1977 36.5538 51.9381 35.956C51.6866 35.3582 51.5609 34.6467 51.5609 33.8216C51.5609 32.3986 51.999 31.2325 52.8752 30.3232C53.5648 29.6074 54.4329 29.1264 55.4794 28.8801C55.9779 28.7628 56.3677 28.3428 56.3677 27.8307V27.0026C56.3677 26.4649 56.8035 26.0291 57.3412 26.0291V26.0291C57.8789 26.0291 58.3147 26.4649 58.3147 27.0026V27.9056C58.3147 28.4019 58.6824 28.8129 59.159 28.9513C60.1985 29.2532 61.0407 29.8157 61.6856 30.6389C62.3257 31.4494 62.7133 32.4512 62.8483 33.6444C62.9104 34.1932 62.4548 34.6425 61.9025 34.6425H60.3856C59.8333 34.6425 59.4027 34.1906 59.306 33.6468C59.2123 33.1205 59.0361 32.6989 58.7772 32.3818C58.3796 31.8766 57.8442 31.624 57.1708 31.624C56.5056 31.624 55.9904 31.8219 55.6254 32.2176C55.2603 32.6049 55.0778 33.1438 55.0778 33.8342C55.0778 34.4741 55.2562 34.9877 55.6132 35.3751C55.9702 35.7624 56.6313 36.1581 57.5968 36.5622C58.5703 36.9664 59.3694 37.3495 59.9941 37.7116C60.6187 38.0652 61.1461 38.4693 61.576 38.924C62.006 39.3703 62.3346 39.8839 62.5617 40.4648C62.7889 41.0374 62.9025 41.7068 62.9025 42.473C62.9025 43.9043 62.4725 45.0663 61.6126 45.9588C60.929 46.6682 60.0404 47.1462 58.9467 47.3928C58.4478 47.5053 58.0592 47.9256 58.0592 48.4371V49.0834C58.0592 49.6177 57.626 50.0508 57.0917 50.0508V50.0508C56.5574 50.0508 56.1243 49.6177 56.1243 49.0834V48.4449C56.1243 47.9355 55.7389 47.5156 55.2419 47.4042C53.9979 47.1251 53.0021 46.5634 52.2545 45.7188C51.5283 44.8843 51.0923 43.832 50.9465 42.5618C50.8835 42.0131 51.3393 41.5636 51.8916 41.5636H53.4085C53.9607 41.5636 54.3908 42.0163 54.4973 42.5582C54.6021 43.0917 54.7996 43.5305 55.0899 43.8749C55.5524 44.4053 56.2135 44.6705 57.0735 44.6705C57.7874 44.6705 58.3512 44.4769 58.765 44.0896C59.1787 43.6938 59.3856 43.1634 59.3856 42.4982Z" fill="#E56D00"/>
<g filter="url(#filter0_d)">
<circle cx="21.5" cy="20.5" r="18" fill="white" stroke="#E56D00"/>
<path d="M23.4414 30H19.9746V16.4258L16.5933 17.7319V14.8511L23.0752 12.2021H23.4414V30Z" fill="#008000"/>
</g>
<defs>
<filter id="filter0_d" x="0" y="0" width="45" height="45" filterUnits="userSpaceOnUse" color-interpolation-filters="sRGB">
<feFlood flood-opacity="0" result="BackgroundImageFix"/>
<feColorMatrix in="SourceAlpha" type="matrix" values="0 0 0 0 0 0 0 0 0 0 0 0 0 0 0 0 0 0 127 0"/>
<feOffset dx="1" dy="2"/>
<feGaussianBlur stdDeviation="2"/>
<feColorMatrix type="matrix" values="0 0 0 0 0 0 0 0 0 0 0 0 0 0 0 0 0 0 0.25 0"/>
<feBlend mode="normal" in2="BackgroundImageFix" result="effect1_dropShadow"/>
<feBlend mode="normal" in="SourceGraphic" in2="effect1_dropShadow" result="shape"/>
</filter>
</defs>
</svg>
