<svg width="111" height="114" viewBox="0 0 111 114" fill="none" xmlns="http://www.w3.org/2000/svg">
<path opacity="0.1" d="M110.87 56.0562C110.87 87.1823 72.1919 113.988 41.5761 113.988C10.9603 113.988 0 87.1823 0 56.0562C0 24.9302 34.5201 2.00732 65.1359 2.00732C95.7517 2.00732 110.87 24.9302 110.87 56.0562Z" fill="#008000"/>
<rect x="22.0977" y="14.866" width="71.2935" height="86.0761" rx="9" fill="white" stroke="#008000" stroke-width="2"/>
<rect x="31.4131" y="71.3008" width="26.7935" height="4.61957" rx="2.30978" fill="#008000"/>
<rect x="31.4131" y="85.1594" width="44.3478" height="4.61957" rx="2.30978" fill="#008000"/>
<path d="M58.206 30.3406C48.8661 30.3406 41.2676 37.9391 41.2676 47.279C41.2676 56.6188 48.8661 64.2174 58.206 64.2174C67.5458 64.2174 75.1444 56.6188 75.1444 47.279C75.1444 37.9391 67.5458 30.3406 58.206 30.3406ZM58.206 60.8297C50.7345 60.8297 44.6553 54.7505 44.6553 47.279C44.6553 39.8075 50.7345 33.7283 58.206 33.7283C65.6775 33.7283 71.7567 39.8075 71.7567 47.279C71.7567 54.7505 65.6775 60.8297 58.206 60.8297Z" fill="#FF0000"/>
<path d="M54.8161 49.9671L50.922 46.0797L48.5303 48.4782L54.8195 54.7539L66.1784 43.395L63.7833 40.9999L54.8161 49.9671Z" fill="#E56D00"/>
<g filter="url(#filter0_d)">
<circle cx="22.5" cy="20.5" r="18" fill="white" stroke="#E56D00"/>
<path d="M19.9126 19.5386H21.585C22.2197 19.5386 22.6836 19.3188 22.9766 18.8794C23.2777 18.4318 23.4282 17.8377 23.4282 17.0972C23.4282 16.3892 23.2736 15.8398 22.9644 15.4492C22.6632 15.0505 22.2563 14.8511 21.7437 14.8511C21.2635 14.8511 20.8688 15.0382 20.5596 15.4126C20.2585 15.7869 20.1079 16.259 20.1079 16.8286H16.6533C16.6533 15.9009 16.8649 15.0708 17.2881 14.3384C17.7194 13.5978 18.3175 13.02 19.0825 12.605C19.8556 12.1899 20.7101 11.9824 21.646 11.9824C23.2817 11.9824 24.5635 12.4341 25.4912 13.3374C26.4189 14.2407 26.8828 15.4777 26.8828 17.0483C26.8828 17.854 26.6712 18.6027 26.248 19.2944C25.833 19.978 25.2837 20.5029 24.6001 20.8691C25.4383 21.2272 26.0609 21.7643 26.4678 22.4805C26.8828 23.1966 27.0903 24.043 27.0903 25.0195C27.0903 26.5983 26.5858 27.8638 25.5767 28.8159C24.5757 29.7681 23.2573 30.2441 21.6216 30.2441C20.0998 30.2441 18.8628 29.7762 17.9106 28.8403C16.9666 27.8963 16.4946 26.6593 16.4946 25.1294H19.9492C19.9492 25.7642 20.116 26.2972 20.4497 26.7285C20.7834 27.1598 21.2065 27.3755 21.7192 27.3755C22.3133 27.3755 22.7812 27.1558 23.123 26.7163C23.473 26.2769 23.6479 25.6909 23.6479 24.9585C23.6479 23.2088 22.9684 22.3299 21.6094 22.3218H19.9126V19.5386Z" fill="#008000"/>
</g>
<defs>
<filter id="filter0_d" x="1" y="0" width="45" height="45" filterUnits="userSpaceOnUse" color-interpolation-filters="sRGB">
<feFlood flood-opacity="0" result="BackgroundImageFix"/>
<feColorMatrix in="SourceAlpha" type="matrix" values="0 0 0 0 0 0 0 0 0 0 0 0 0 0 0 0 0 0 127 0"/>
<feOffset dx="1" dy="2"/>
<feGaussianBlur stdDeviation="2"/>
<feColorMatrix type="matrix" values="0 0 0 0 0 0 0 0 0 0 0 0 0 0 0 0 0 0 0.25 0"/>
<feBlend mode="normal" in2="BackgroundImageFix" result="effect1_dropShadow"/>
<feBlend mode="normal" in="SourceGraphic" in2="effect1_dropShadow" result="shape"/>
</filter>
</defs>
</svg>
